<?xml version="1.0" encoding="utf-8"?>
<!-- Generator: Adobe Illustrator 23.1.1, SVG Export Plug-In . SVG Version: 6.00 Build 0)  -->
<svg version="1.1" id="Layer_1" xmlns="http://www.w3.org/2000/svg" xmlns:xlink="http://www.w3.org/1999/xlink" x="0px" y="0px"
	 viewBox="0 0 360 129.4" style="enable-background:new 0 0 360 129.4;" xml:space="preserve">
<style type="text/css">
	.st0{opacity:0.82;fill:#5E9732;stroke:#5E9732;}
	.st1{opacity:0.62;fill:#5E9732;stroke:#5E9732;}
	.st2{opacity:0.52;fill:#5E9732;stroke:#5E9732;}
	.st3{opacity:0.42;fill:#5E9732;stroke:#5E9732;}
	.st4{opacity:0.32;fill:#5E9732;stroke:#5E9732;}
	.st5{opacity:0.22;fill:#5E9732;stroke:#5E9732;}
	.st6{opacity:0.12;fill:#5E9732;stroke:#5E9732;}
	.st7{fill:#010101;}
	.st8{fill:#0077AF;}
</style>
<polygon class="st0" points="281.7,26 281.7,84.6 338.1,56.4 "/>
<rect x="237" y="38.1" class="st1" width="36.6" height="36.6"/>
<polygon class="st2" points="226.5,40.1 228.3,71.2 197.4,72.8 195.6,41.7 "/>
<polygon class="st3" points="184.4,42 188,67.6 162.8,70.9 159.1,45.3 "/>
<polygon class="st4" points="142.3,43.9 147.7,64 128.1,69 122.7,48.9 "/>
<polygon class="st5" points="100.2,45.8 107.5,60.4 93.5,67 86.2,52.5 "/>
<rect x="52.6" y="50" transform="matrix(0.7071 -0.7071 0.7071 0.7071 -22.7782 57.8778)" class="st6" width="11.7" height="12.8"/>
<path class="st7" d="M38.7,56.4"/>
<g>
	<path class="st8" d="M40.8,42h-2.5l-2.4-5.4H24.8L22.3,42h-2.4l9.3-20.7h2.2L40.8,42z M30.4,24l-4.7,10.5H35L30.4,24z"/>
	<path class="st8" d="M53.2,42.3c-6.4,0-10.4-4.7-10.4-10.6c0-5.7,4.1-10.6,10.3-10.6c3.5,0,5.6,1,7.6,2.7l-1.5,1.8
		c-1.6-1.4-3.3-2.3-6.2-2.3c-4.5,0-7.8,3.8-7.8,8.4c0,4.9,3.1,8.6,8.1,8.6c2.3,0,4.5-0.9,5.9-2.1v-5.1h-6.2V31h8.5v8.2
		C59.5,40.9,56.6,42.3,53.2,42.3z"/>
	<path class="st8" d="M81.4,23.6H68.9v7h11.2v2.1H68.9v7.2h12.7V42h-15V21.5h14.8V23.6z"/>
	<path class="st8" d="M101.3,21.5h2.3V42h-1.8L88.5,25.2V42h-2.3V21.5h2.2l12.9,16.4V21.5z"/>
	<path class="st8" d="M118.8,42.3c-5.9,0-10.3-4.7-10.3-10.6c0-5.9,4.3-10.6,10.4-10.6c3.7,0,5.9,1.3,8,3.3l-1.6,1.7
		c-1.7-1.6-3.7-2.8-6.4-2.8c-4.5,0-7.9,3.7-7.9,8.4s3.4,8.5,7.9,8.5c2.8,0,4.7-1.1,6.6-3l1.5,1.5C124.8,40.9,122.5,42.3,118.8,42.3z
		"/>
	<path class="st8" d="M139.5,42h-2.3v-8.1l-8.5-12.4h2.8l6.9,10.3l7-10.3h2.7l-8.5,12.4V42z"/>
	<path class="st8" d="M31.1,68.6c-5.9,0-10.3-4.7-10.3-10.6c0-5.9,4.3-10.6,10.4-10.6c3.7,0,5.9,1.3,8,3.3l-1.6,1.7
		c-1.7-1.6-3.7-2.8-6.4-2.8c-4.5,0-7.9,3.7-7.9,8.4s3.4,8.5,7.9,8.5c2.8,0,4.7-1.1,6.6-3l1.5,1.5C37.1,67.2,34.8,68.6,31.1,68.6z"/>
	<path class="st8" d="M45.6,59v9.2h-2.3V47.7h2.3v9.1h11.8v-9.1h2.3v20.5h-2.3V59H45.6z"/>
	<path class="st8" d="M84.7,68.3h-2.5l-2.4-5.4H68.6l-2.4,5.4h-2.4l9.3-20.7h2.2L84.7,68.3z M74.2,50.3l-4.7,10.5h9.3L74.2,50.3z"/>
	<path class="st8" d="M103.8,47.7h2.3v20.5h-1.8L91,51.4v16.8h-2.3V47.7h2.2l12.9,16.4V47.7z"/>
	<path class="st8" d="M121.4,68.6c-6.4,0-10.4-4.7-10.4-10.6c0-5.7,4.1-10.6,10.3-10.6c3.5,0,5.6,1,7.6,2.7l-1.5,1.8
		c-1.6-1.4-3.3-2.3-6.2-2.3c-4.5,0-7.8,3.8-7.8,8.4c0,4.9,3.1,8.6,8.1,8.6c2.3,0,4.5-0.9,5.9-2.1v-5.1h-6.2v-2.1h8.5v8.2
		C127.7,67.2,124.9,68.6,121.4,68.6z"/>
	<path class="st8" d="M149.7,49.9h-12.5v7h11.2V59h-11.2v7.2h12.7v2.1h-15V47.7h14.8V49.9z"/>
	<path class="st8" d="M29.5,94.5h-2.3V76.1h-6.9V74h16.1v2.1h-6.9V94.5z"/>
	<path class="st8" d="M48.8,94.9c-6.2,0-10.4-4.9-10.4-10.6s4.2-10.6,10.5-10.6s10.4,4.9,10.4,10.6S55,94.9,48.8,94.9z M48.8,75.8
		c-4.7,0-8,3.8-8,8.4s3.4,8.5,8.1,8.5s8-3.8,8-8.4S53.5,75.8,48.8,75.8z"/>
	<path class="st8" d="M73.7,94.9c-6.2,0-10.4-4.9-10.4-10.6s4.2-10.6,10.5-10.6s10.4,4.9,10.4,10.6S79.9,94.9,73.7,94.9z M73.7,75.8
		c-4.7,0-8,3.8-8,8.4s3.4,8.5,8.1,8.5s8-3.8,8-8.4S78.4,75.8,73.7,75.8z"/>
	<path class="st8" d="M89.1,74h2.3v18.4h11.5v2.1H89.1V74z"/>
	<path class="st8" d="M124.7,94.5h-2.9l-7.9-9.9l-4.4,4.4v5.5h-2.3V74h2.3v12.2L121.3,74h3l-8.8,9L124.7,94.5z"/>
	<path class="st8" d="M130.8,74v20.5h-2.3V74H130.8z"/>
	<path class="st8" d="M144.6,94.5h-2.3V76.1h-6.9V74h16.1v2.1h-6.9V94.5z"/>
</g>
<g>
	<path class="st8" d="M25.9,114.5v-11.6h-3.5v-1.1h8.3v1.1h-3.5v11.6H25.9z"/>
	<path class="st8" d="M30.8,109.9c0-3,1.4-4.9,3.3-4.9c1.9,0,3.2,1.8,3.2,4.9v0.5h-5.3c0.1,2.1,1.1,3.3,2.5,3.3
		c0.7,0,1.4-0.2,2.1-0.6l0.3,0.9c-0.8,0.5-1.6,0.7-2.5,0.7C32.5,114.7,30.8,113.3,30.8,109.9z M36.1,109.4c-0.1-2.1-0.8-3.4-2-3.4
		c-1.2,0-2,1.4-2.1,3.4H36.1z"/>
	<path class="st8" d="M40.3,114.5h-1.2v-9.3H40l0.2,0.8c0.7-0.5,1.5-1,2.5-1c1.6,0,2.5,1,2.5,2.8v6.6h-1.2v-6.4c0-1.3-0.6-2-1.7-2
		c-0.8,0-1.5,0.4-2.1,0.8V114.5z"/>
	<path class="st8" d="M50.8,114.5v-12.7h6.8v1.1h-5.5v4.5h4.9v1.1h-4.9v4.9h5.6v1.1H50.8z"/>
	<path class="st8" d="M59.7,114.5v-13.1h1.2v13.1H59.7z"/>
	<path class="st8" d="M62.9,109.9c0-3,1.4-4.9,3.3-4.9c1.9,0,3.2,1.8,3.2,4.9v0.5h-5.3c0.1,2.1,1.1,3.3,2.5,3.3
		c0.7,0,1.4-0.2,2.1-0.6L69,114c-0.8,0.5-1.6,0.7-2.5,0.7C64.6,114.7,62.9,113.3,62.9,109.9z M68.2,109.4c-0.1-2.1-0.8-3.4-2-3.4
		c-1.2,0-2,1.4-2.1,3.4H68.2z"/>
	<path class="st8" d="M81,114.5v-6.4c0-1.3-0.6-2-1.7-2c-0.7,0-1.5,0.4-2.1,0.9c0.1,0.3,0.1,0.6,0.1,0.9v6.6h-1.2v-6.4
		c0-1.3-0.6-2-1.7-2c-0.7,0-1.5,0.4-2,0.8v7.5h-1.2v-9.3h0.9l0.2,0.8c0.7-0.5,1.5-1,2.5-1c1,0,1.7,0.4,2.1,1.1
		c0.8-0.6,1.7-1.1,2.8-1.1c1.5,0,2.5,0.9,2.5,2.8v6.7H81z"/>
	<path class="st8" d="M84,109.9c0-3,1.4-4.9,3.3-4.9c1.9,0,3.2,1.8,3.2,4.9v0.5h-5.3c0.1,2.1,1.1,3.3,2.5,3.3c0.7,0,1.4-0.2,2.1-0.6
		l0.3,0.9c-0.8,0.5-1.6,0.7-2.5,0.7C85.7,114.7,84,113.3,84,109.9z M89.3,109.4c-0.1-2.1-0.8-3.4-2-3.4c-1.2,0-2,1.4-2.1,3.4H89.3z"
		/>
	<path class="st8" d="M93.5,114.5h-1.2v-9.3h0.9l0.2,0.8c0.7-0.5,1.5-1,2.5-1c1.6,0,2.5,1,2.5,2.8v6.6h-1.2v-6.4c0-1.3-0.6-2-1.7-2
		c-0.8,0-1.5,0.4-2.1,0.8V114.5z"/>
	<path class="st8" d="M101.3,112.2v-6h-1.2v-1h1.2v-2.6h1.2v2.6h2.4v1h-2.4v5.8c0,1.1,0.5,1.6,1.5,1.6c0.3,0,0.6,0,0.9-0.1v1
		c-0.3,0.1-0.7,0.2-1.2,0.2C102.2,114.7,101.3,113.9,101.3,112.2z"/>
	<path class="st8" d="M109,114.7c-1,0-2.1-0.3-2.9-0.8l0.4-1c0.8,0.5,1.7,0.8,2.6,0.8c1.1,0,1.8-0.6,1.8-1.5c0-0.8-0.4-1.2-1.9-1.9
		c-1.7-0.7-2.5-1.4-2.5-2.7c0-1.5,1.1-2.4,2.7-2.4c0.9,0,1.8,0.3,2.5,0.7l-0.3,1c-0.7-0.4-1.4-0.7-2.2-0.7c-0.9,0-1.6,0.5-1.6,1.3
		c0,0.8,0.5,1.2,1.9,1.8c1.9,0.8,2.5,1.6,2.5,2.8C111.9,113.8,110.7,114.7,109,114.7z"/>
	<path class="st8" d="M119.7,114.7c-1.9,0-3.4-1.8-3.4-4.8c0-3,1.5-4.9,3.4-4.9c1.9,0,3.4,1.8,3.4,4.8
		C123.1,112.9,121.6,114.7,119.7,114.7z M119.7,106.1c-1.3,0-2.2,1.5-2.2,3.8s0.9,3.8,2.2,3.8c1.3,0,2.2-1.5,2.2-3.8
		C121.9,107.6,121,106.1,119.7,106.1z"/>
	<path class="st8" d="M129.5,101.6l-0.2,1c-0.3-0.1-0.7-0.2-1.1-0.2c-1.1,0-1.5,0.7-1.5,1.8v1.1h2.2v1h-2.2v8.3h-1.1v-8.3h-1.3v-1
		h1.3v-1.1c0-1.8,0.9-2.8,2.6-2.8C128.6,101.4,129.1,101.4,129.5,101.6z"/>
	<path class="st8" d="M137.4,114.7c-2.6,0-4.5-2.5-4.5-6.5c0-4,1.9-6.6,4.5-6.6c2.6,0,4.5,2.5,4.5,6.5S140,114.7,137.4,114.7z
		 M137.4,102.7c-1.9,0-3.2,2.1-3.2,5.4c0,3.3,1.3,5.5,3.2,5.5c1.9,0,3.2-2.1,3.2-5.4C140.7,104.9,139.3,102.7,137.4,102.7z"/>
	<path class="st8" d="M144.1,114.5v-9.3h0.9l0.2,1.5c0.7-0.9,1.6-1.6,2.9-1.6v1.2c-1.2,0.1-2.1,0.5-2.8,1.3v6.9H144.1z"/>
	<path class="st8" d="M155.3,114.3c0,2.5-1.3,3.5-3.4,3.5c-0.9,0-1.8-0.2-2.5-0.5l0.3-1c0.7,0.3,1.4,0.5,2.1,0.5
		c1.5,0,2.3-0.8,2.3-2.4v-0.7c-0.5,0.4-1.2,0.8-2,0.8c-1.9,0-3.1-1.7-3.1-4.6c0-3.1,1.3-4.7,3.2-4.7c0.8,0,1.5,0.4,2.1,0.9l0.2-0.7
		h0.9V114.3z M152.5,113.5c0.6,0,1.3-0.4,1.7-0.8v-5.9c-0.5-0.4-1.1-0.8-1.7-0.8c-1.3,0-2.3,1.3-2.3,3.7
		C150.2,112.1,151.1,113.5,152.5,113.5z"/>
	<path class="st8" d="M159.8,114.7c-1.5,0-2.5-1-2.5-2.9c0-0.9,0.3-1.7,0.8-2.1c0.5-0.5,1.3-0.9,2.8-0.9c0.5,0,1,0.1,1.4,0.1v-1.1
		c0-1.1-0.6-1.7-1.8-1.7c-0.8,0-1.5,0.2-2.3,0.6l-0.3-1c0.8-0.4,1.7-0.6,2.7-0.6c1.9,0,2.8,0.9,2.8,2.7v5.1l0.1,1.7h-0.9l-0.3-1
		C161.5,114.3,160.7,114.7,159.8,114.7z M162.2,112.7v-2.8c-0.3-0.1-0.8-0.1-1.2-0.1c-1.2,0-1.7,0.2-2.1,0.6
		c-0.3,0.3-0.5,0.8-0.5,1.4c0,1.2,0.7,1.9,1.8,1.9C160.8,113.7,161.5,113.3,162.2,112.7z"/>
	<path class="st8" d="M167,114.5h-1.2v-9.3h0.9l0.2,0.8c0.7-0.5,1.5-1,2.5-1c1.6,0,2.5,1,2.5,2.8v6.6h-1.2v-6.4c0-1.3-0.6-2-1.7-2
		c-0.8,0-1.5,0.4-2.1,0.8V114.5z"/>
	<path class="st8" d="M174.3,103.3v-1.4h1.3v1.4H174.3z M174.4,114.5v-9.3h1.2v9.3H174.4z"/>
	<path class="st8" d="M177.5,114.5v-0.9l4.5-7.4h-4.3v-1h5.6v0.9l-4.5,7.4h4.5v1H177.5z"/>
	<path class="st8" d="M187.1,114.7c-1.5,0-2.5-1-2.5-2.9c0-0.9,0.3-1.7,0.8-2.1c0.5-0.5,1.3-0.9,2.8-0.9c0.5,0,1,0.1,1.4,0.1v-1.1
		c0-1.1-0.6-1.7-1.8-1.7c-0.8,0-1.5,0.2-2.3,0.6l-0.3-1c0.8-0.4,1.7-0.6,2.7-0.6c1.9,0,2.8,0.9,2.8,2.7v5.1l0.1,1.7h-0.9l-0.3-1
		C188.8,114.3,188.1,114.7,187.1,114.7z M189.5,112.7v-2.8c-0.3-0.1-0.8-0.1-1.2-0.1c-1.2,0-1.7,0.2-2.1,0.6
		c-0.3,0.3-0.5,0.8-0.5,1.4c0,1.2,0.7,1.9,1.8,1.9C188.2,113.7,188.9,113.3,189.5,112.7z"/>
	<path class="st8" d="M193.6,112.2v-6h-1.2v-1h1.2v-2.6h1.2v2.6h2.4v1h-2.4v5.8c0,1.1,0.5,1.6,1.5,1.6c0.3,0,0.6,0,0.9-0.1v1
		c-0.3,0.1-0.7,0.2-1.2,0.2C194.4,114.7,193.6,113.9,193.6,112.2z"/>
	<path class="st8" d="M198.9,103.3v-1.4h1.3v1.4H198.9z M199,114.5v-9.3h1.2v9.3H199z"/>
	<path class="st8" d="M205.5,114.7c-1.9,0-3.4-1.8-3.4-4.8c0-3,1.5-4.9,3.4-4.9c1.9,0,3.4,1.8,3.4,4.8
		C208.9,112.9,207.5,114.7,205.5,114.7z M205.5,106.1c-1.3,0-2.2,1.5-2.2,3.8s0.9,3.8,2.2,3.8c1.3,0,2.2-1.5,2.2-3.8
		C207.8,107.6,206.8,106.1,205.5,106.1z"/>
	<path class="st8" d="M212.1,114.5h-1.2v-9.3h0.9l0.2,0.8c0.7-0.5,1.5-1,2.5-1c1.6,0,2.5,1,2.5,2.8v6.6h-1.2v-6.4c0-1.3-0.6-2-1.7-2
		c-0.8,0-1.5,0.4-2.1,0.8V114.5z"/>
	<path class="st8" d="M221.4,114.7c-1.5,0-2.5-1-2.5-2.9c0-0.9,0.3-1.7,0.8-2.1c0.5-0.5,1.3-0.9,2.8-0.9c0.5,0,1,0.1,1.4,0.1v-1.1
		c0-1.1-0.6-1.7-1.8-1.7c-0.8,0-1.5,0.2-2.3,0.6l-0.3-1c0.8-0.4,1.7-0.6,2.7-0.6c1.9,0,2.8,0.9,2.8,2.7v5.1l0.1,1.7h-0.9l-0.3-1
		C223.1,114.3,222.3,114.7,221.4,114.7z M223.8,112.7v-2.8c-0.3-0.1-0.8-0.1-1.2-0.1c-1.2,0-1.7,0.2-2.1,0.6
		c-0.3,0.3-0.5,0.8-0.5,1.4c0,1.2,0.7,1.9,1.8,1.9C222.5,113.7,223.1,113.3,223.8,112.7z"/>
	<path class="st8" d="M227.5,114.5v-13.1h1.2v13.1H227.5z"/>
	<path class="st8" d="M236.5,114.5v-11.6H233v-1.1h8.3v1.1h-3.5v11.6H236.5z"/>
	<path class="st8" d="M242.2,114.5v-9.3h0.9l0.2,1.5c0.7-0.9,1.6-1.6,2.9-1.6v1.2c-1.2,0.1-2.1,0.5-2.8,1.3v6.9H242.2z"/>
	<path class="st8" d="M249.6,114.7c-1.5,0-2.5-1-2.5-2.9c0-0.9,0.3-1.7,0.8-2.1c0.5-0.5,1.3-0.9,2.8-0.9c0.5,0,1,0.1,1.4,0.1v-1.1
		c0-1.1-0.6-1.7-1.8-1.7c-0.8,0-1.5,0.2-2.3,0.6l-0.3-1c0.8-0.4,1.7-0.6,2.7-0.6c1.9,0,2.8,0.9,2.8,2.7v5.1l0.1,1.7h-0.9l-0.3-1
		C251.3,114.3,250.5,114.7,249.6,114.7z M252,112.7v-2.8c-0.3-0.1-0.8-0.1-1.2-0.1c-1.2,0-1.7,0.2-2.1,0.6c-0.3,0.3-0.5,0.8-0.5,1.4
		c0,1.2,0.7,1.9,1.8,1.9C250.6,113.7,251.3,113.3,252,112.7z"/>
	<path class="st8" d="M256.8,114.5h-1.2v-9.3h0.9l0.2,0.8c0.7-0.5,1.5-1,2.5-1c1.6,0,2.5,1,2.5,2.8v6.6h-1.2v-6.4c0-1.3-0.6-2-1.7-2
		c-0.8,0-1.5,0.4-2.1,0.8V114.5z"/>
	<path class="st8" d="M266.4,114.7c-1,0-2.1-0.3-2.9-0.8l0.4-1c0.8,0.5,1.7,0.8,2.6,0.8c1.1,0,1.8-0.6,1.8-1.5
		c0-0.8-0.4-1.2-1.9-1.9c-1.7-0.7-2.5-1.4-2.5-2.7c0-1.5,1.1-2.4,2.7-2.4c0.9,0,1.8,0.3,2.5,0.7l-0.3,1c-0.7-0.4-1.4-0.7-2.2-0.7
		c-0.9,0-1.6,0.5-1.6,1.3c0,0.8,0.5,1.2,1.9,1.8c1.9,0.8,2.5,1.6,2.5,2.8C269.3,113.8,268.1,114.7,266.4,114.7z"/>
	<path class="st8" d="M275.7,101.6l-0.2,1c-0.3-0.1-0.7-0.2-1.1-0.2c-1.1,0-1.5,0.7-1.5,1.8v1.1h2.2v1h-2.2v8.3h-1.1v-8.3h-1.3v-1
		h1.3v-1.1c0-1.8,0.9-2.8,2.6-2.8C274.8,101.4,275.3,101.4,275.7,101.6z"/>
	<path class="st8" d="M279.3,114.7c-1.9,0-3.4-1.8-3.4-4.8c0-3,1.5-4.9,3.4-4.9c1.9,0,3.4,1.8,3.4,4.8
		C282.7,112.9,281.2,114.7,279.3,114.7z M279.3,106.1c-1.3,0-2.2,1.5-2.2,3.8s0.9,3.8,2.2,3.8c1.3,0,2.2-1.5,2.2-3.8
		C281.5,107.6,280.6,106.1,279.3,106.1z"/>
	<path class="st8" d="M284.7,114.5v-9.3h0.9l0.2,1.5c0.7-0.9,1.6-1.6,2.9-1.6v1.2c-1.2,0.1-2.1,0.5-2.8,1.3v6.9H284.7z"/>
	<path class="st8" d="M300,114.5v-6.4c0-1.3-0.6-2-1.7-2c-0.7,0-1.5,0.4-2.1,0.9c0.1,0.3,0.1,0.6,0.1,0.9v6.6h-1.2v-6.4
		c0-1.3-0.6-2-1.7-2c-0.7,0-1.5,0.4-2,0.8v7.5h-1.2v-9.3h0.9l0.2,0.8c0.7-0.5,1.5-1,2.5-1c1,0,1.7,0.4,2.1,1.1
		c0.8-0.6,1.7-1.1,2.8-1.1c1.5,0,2.5,0.9,2.5,2.8v6.7H300z"/>
	<path class="st8" d="M305.5,114.7c-1.5,0-2.5-1-2.5-2.9c0-0.9,0.3-1.7,0.8-2.1c0.5-0.5,1.3-0.9,2.8-0.9c0.5,0,1,0.1,1.4,0.1v-1.1
		c0-1.1-0.6-1.7-1.8-1.7c-0.8,0-1.5,0.2-2.3,0.6l-0.3-1c0.8-0.4,1.7-0.6,2.7-0.6c1.9,0,2.8,0.9,2.8,2.7v5.1l0.1,1.7h-0.9l-0.3-1
		C307.2,114.3,306.5,114.7,305.5,114.7z M307.9,112.7v-2.8c-0.3-0.1-0.8-0.1-1.2-0.1c-1.2,0-1.7,0.2-2.1,0.6
		c-0.3,0.3-0.5,0.8-0.5,1.4c0,1.2,0.7,1.9,1.8,1.9C306.6,113.7,307.3,113.3,307.9,112.7z"/>
	<path class="st8" d="M312,112.2v-6h-1.2v-1h1.2v-2.6h1.2v2.6h2.4v1h-2.4v5.8c0,1.1,0.5,1.6,1.5,1.6c0.3,0,0.6,0,0.9-0.1v1
		c-0.3,0.1-0.7,0.2-1.2,0.2C312.8,114.7,312,113.9,312,112.2z"/>
	<path class="st8" d="M317.3,103.3v-1.4h1.3v1.4H317.3z M317.4,114.5v-9.3h1.2v9.3H317.4z"/>
	<path class="st8" d="M323.9,114.7c-1.9,0-3.4-1.8-3.4-4.8c0-3,1.5-4.9,3.4-4.9c1.9,0,3.4,1.8,3.4,4.8
		C327.3,112.9,325.9,114.7,323.9,114.7z M323.9,106.1c-1.3,0-2.2,1.5-2.2,3.8s0.9,3.8,2.2,3.8c1.3,0,2.2-1.5,2.2-3.8
		C326.1,107.6,325.2,106.1,323.9,106.1z"/>
	<path class="st8" d="M330.5,114.5h-1.2v-9.3h0.9l0.2,0.8c0.7-0.5,1.5-1,2.5-1c1.6,0,2.5,1,2.5,2.8v6.6h-1.2v-6.4c0-1.3-0.6-2-1.7-2
		c-0.8,0-1.5,0.4-2.1,0.8V114.5z"/>
</g>
</svg>
